<svg width="81" height="130" viewBox="0 0 81 130" fill="none" xmlns="http://www.w3.org/2000/svg">
<path d="M68.85 0H12.15C5.44219 0 0 5.45898 0 12.1875V117.812C0 124.541 5.44219 130 12.15 130H68.85C75.5578 130 81 124.541 81 117.812V12.1875C81 5.45898 75.5578 0 68.85 0ZM40.5 121.875C36.0197 121.875 32.4 118.244 32.4 113.75C32.4 109.256 36.0197 105.625 40.5 105.625C44.9803 105.625 48.6 109.256 48.6 113.75C48.6 118.244 44.9803 121.875 40.5 121.875ZM68.85 94.4531C68.85 96.1289 67.4831 97.5 65.8125 97.5H15.1875C13.5169 97.5 12.15 96.1289 12.15 94.4531V15.2344C12.15 13.5586 13.5169 12.1875 15.1875 12.1875H65.8125C67.4831 12.1875 68.85 13.5586 68.85 15.2344V94.4531Z" fill="black"/>
</svg>
